<mxfile host="65bd71144e">
    <diagram id="-yKd4-HMBDkQZtuK9eO9" name="Page-1">
        <mxGraphModel dx="1156" dy="533" grid="1" gridSize="10" guides="1" tooltips="1" connect="1" arrows="1" fold="1" page="1" pageScale="1" pageWidth="850" pageHeight="1100" math="0" shadow="0">
            <root>
                <mxCell id="0"/>
                <mxCell id="1" parent="0"/>
                <mxCell id="2" value="" style="rounded=0;whiteSpace=wrap;html=1;fillColor=#f5f5f5;strokeColor=#666666;fontColor=#333333;" parent="1" vertex="1">
                    <mxGeometry x="10" y="181.25" width="833" height="128.75" as="geometry"/>
                </mxCell>
                <mxCell id="6" value="&lt;font style=&quot;font-size: 18px;&quot;&gt;DECSAI&lt;/font&gt;" style="whiteSpace=wrap;html=1;aspect=fixed;fillColor=#f5f5f5;fontColor=#333333;strokeColor=#666666;fontSize=18;" parent="1" vertex="1">
                    <mxGeometry x="40" y="208.44" width="74.37" height="74.37" as="geometry"/>
                </mxCell>
                <mxCell id="7" value="&lt;font style=&quot;font-size: 18px;&quot;&gt;UGR&lt;/font&gt;" style="whiteSpace=wrap;html=1;aspect=fixed;fillColor=#f5f5f5;fontColor=#333333;strokeColor=#666666;fontSize=18;" parent="1" vertex="1">
                    <mxGeometry x="386.5" y="205.63" width="80" height="80" as="geometry"/>
                </mxCell>
                <mxCell id="8" value="&lt;font style=&quot;font-size: 18px;&quot;&gt;Facultad de Ciencias&lt;/font&gt;" style="whiteSpace=wrap;html=1;aspect=fixed;fillColor=#f5f5f5;fontColor=#333333;strokeColor=#666666;" parent="1" vertex="1">
                    <mxGeometry x="730" y="203.44" width="84.37" height="84.37" as="geometry"/>
                </mxCell>
                <mxCell id="9" value="" style="rounded=0;whiteSpace=wrap;html=1;fillColor=#f5f5f5;fontColor=#333333;strokeColor=#666666;movable=1;resizable=1;rotatable=1;deletable=1;editable=1;connectable=1;" parent="1" vertex="1">
                    <mxGeometry x="10.01" y="310" width="833" height="370" as="geometry"/>
                </mxCell>
                <mxCell id="44" value="&lt;font color=&quot;#000000&quot;&gt;Hello, username&lt;br&gt;&lt;div style=&quot;&quot;&gt;&lt;span style=&quot;background-color: initial;&quot;&gt;&lt;u&gt;logout&lt;/u&gt;&lt;/span&gt;&lt;/div&gt;&lt;/font&gt;" style="text;html=1;strokeColor=none;fillColor=none;align=right;verticalAlign=middle;whiteSpace=wrap;rounded=0;" parent="1" vertex="1">
                    <mxGeometry x="721.37" y="330" width="100" height="30" as="geometry"/>
                </mxCell>
                <mxCell id="45" value="&lt;font style=&quot;font-size: 16px;&quot;&gt;Add User/Manager&lt;/font&gt;" style="rounded=1;whiteSpace=wrap;html=1;fillColor=#0066CC;fontColor=#E6E6E6;" parent="1" vertex="1">
                    <mxGeometry x="356.01" y="325" width="140.99" height="40" as="geometry"/>
                </mxCell>
                <mxCell id="56" value="Go Back" style="rounded=1;whiteSpace=wrap;html=1;fillColor=#f5f5f5;fontColor=#999999;strokeColor=#999999;" parent="1" vertex="1">
                    <mxGeometry x="40" y="327.5" width="70" height="35" as="geometry"/>
                </mxCell>
                <mxCell id="59" value="Disable" style="rounded=1;whiteSpace=wrap;html=1;strokeColor=#CC0000;fontSize=13;fontColor=#CC0000;fillColor=#F5F5F5;fontStyle=1" parent="1" vertex="1">
                    <mxGeometry x="466.5" y="420" width="75" height="30" as="geometry"/>
                </mxCell>
                <mxCell id="60" value="&amp;nbsp;User/Manager 2&lt;br&gt;&amp;nbsp; &lt;span style=&quot;font-weight: normal;&quot;&gt;&lt;font color=&quot;#999999&quot; style=&quot;font-size: 13px;&quot;&gt;Disabled&lt;br&gt;&amp;nbsp; &amp;nbsp;&lt;u&gt;Change Password&lt;/u&gt;&lt;br&gt;&lt;/font&gt;&lt;/span&gt;" style="rounded=1;whiteSpace=wrap;html=1;strokeColor=#E6E6E6;fontColor=#333333;fillColor=#f5f5f5;fontStyle=1;fontSize=19;align=left;verticalAlign=top;" parent="1" vertex="1">
                    <mxGeometry x="295" y="490" width="260" height="90" as="geometry"/>
                </mxCell>
                <mxCell id="62" value="Enable" style="rounded=1;whiteSpace=wrap;html=1;strokeColor=#006600;fontSize=13;fontColor=#006600;fillColor=#F5F5F5;fontStyle=1" parent="1" vertex="1">
                    <mxGeometry x="467.25" y="520" width="73.5" height="30" as="geometry"/>
                </mxCell>
                <mxCell id="63" value="" style="edgeStyle=none;html=1;fontSize=13;fontColor=#CC0000;endArrow=none;" parent="1" target="57" edge="1">
                    <mxGeometry relative="1" as="geometry">
                        <mxPoint x="424.32124999999996" y="450" as="sourcePoint"/>
                        <mxPoint x="426.0930952380952" y="365" as="targetPoint"/>
                    </mxGeometry>
                </mxCell>
                <mxCell id="57" value="&amp;nbsp;User/Manager 1&lt;br&gt;&amp;nbsp; &lt;span style=&quot;font-weight: normal;&quot;&gt;&lt;font color=&quot;#999999&quot; style=&quot;font-size: 13px;&quot;&gt;Enabled&lt;br&gt;&amp;nbsp; &amp;nbsp;&lt;u&gt;Change Password&lt;/u&gt;&lt;br&gt;&lt;/font&gt;&lt;/span&gt;" style="rounded=1;whiteSpace=wrap;html=1;strokeColor=#E6E6E6;fontColor=#333333;fillColor=#f5f5f5;fontStyle=1;fontSize=19;align=left;verticalAlign=top;" parent="1" vertex="1">
                    <mxGeometry x="295" y="380" width="260" height="90" as="geometry"/>
                </mxCell>
                <mxCell id="64" value="Disable" style="rounded=1;whiteSpace=wrap;html=1;strokeColor=#CC0000;fontSize=13;fontColor=#CC0000;fillColor=#F5F5F5;fontStyle=1" parent="1" vertex="1">
                    <mxGeometry x="467.25" y="410" width="73.5" height="30" as="geometry"/>
                </mxCell>
            </root>
        </mxGraphModel>
    </diagram>
</mxfile>